<svg xmlns="http://www.w3.org/2000/svg" xmlns:xlink="http://www.w3.org/1999/xlink" width="500" zoomAndPan="magnify" viewBox="0 0 375 374.999991" height="500" preserveAspectRatio="xMidYMid meet" version="1.2"><g id="95d9b0e156"><path style=" stroke:none;fill-rule:nonzero;fill:#ffffff;fill-opacity:1;" d="M 191.644531 26.449219 C 191.644531 26.449219 187.777344 174.324219 186.179688 235.011719 L 164.5 203.324219 L 178.445312 241.632812 L 135.230469 247.917969 L 178.445312 254.199219 L 161.746094 286.925781 L 185.550781 261.933594 C 184.316406 309.429688 184.03125 321.101562 184.03125 321.101562 C 184.03125 321.101562 77.441406 271.605469 136.679688 162.234375 C 136.679688 162.234375 62.808594 80.675781 129.71875 30.558594 C 129.71875 30.558594 15.460938 99.554688 87.953125 218.019531 C 87.953125 218.019531 28.015625 159.476562 59.363281 100.3125 C 59.363281 100.3125 5.035156 176.9375 71.253906 261.234375 C 71.253906 261.234375 53.164062 250.132812 37.148438 207.601562 C 37.148438 207.601562 48.804688 334.152344 190.410156 335.796875 L 193.238281 335.796875 C 334.757812 334.164062 346.5 207.625 346.5 207.625 C 330.203125 250.085938 312.058594 261.257812 312.058594 261.257812 C 378.265625 176.960938 323.925781 100.335938 323.925781 100.335938 C 355.269531 159.574219 295.332031 218.042969 295.332031 218.042969 C 367.824219 99.640625 253.566406 30.605469 253.566406 30.605469 C 320.464844 80.796875 246.605469 162.257812 246.605469 162.257812 C 305.84375 271.617188 199.257812 321.128906 199.257812 321.128906 C 199.257812 321.128906 198.984375 309.453125 197.734375 261.960938 C 200.703125 265.066406 221.542969 286.953125 221.542969 286.953125 L 204.839844 254.226562 L 248.078125 247.941406 L 204.839844 241.65625 L 218.785156 203.347656 L 197.105469 235.035156 C 195.570312 174.472656 191.71875 27.683594 191.644531 26.449219 Z M 191.644531 26.449219 "/></g></svg>